{
	"asset":{
		"version":"2.0",
		"generator":"THREE.GLTFExporter",
		"copyright":""
	},
	"scenes":[{
		"nodes":[0]
	}],
	"nodes":[{
		"name":"head",
		"translation":[0.0019856810104101898,
		0.014913352206349373,
		0.21930386126041413],
		"rotation":[0.0,
		0.0,
		0.0,
		-1.0],
		"scale":[1.0,
		1.0,
		1.0],
		"children":[1,
		2,
		3,
		4,
		5,
		6,
		7,
		8,
		9,
		10,
		11,
		12,
		13,
		14,
		15]
	},
	{
		"name":"head-Mat.5",
		"mesh":0
	},
	{
		"name":"head-Mat.4",
		"mesh":1
	},
	{
		"name":"head-Mat.3",
		"mesh":2
	},
	{
		"name":"head-Mat.3",
		"mesh":3
	},
	{
		"name":"head-Mat.2",
		"mesh":4
	},
	{
		"name":"head-Mat.12",
		"mesh":5
	},
	{
		"name":"head-Mat.6",
		"mesh":6
	},
	{
		"name":"head-Mat.9",
		"mesh":7
	},
	{
		"name":"head-Mat.10",
		"mesh":8
	},
	{
		"name":"head-Mat.11",
		"mesh":9
	},
	{
		"name":"head-Mat.13",
		"mesh":10
	},
	{
		"name":"head-Mat.3",
		"mesh":11
	},
	{
		"name":"head-Mat.2",
		"mesh":12
	},
	{
		"name":"head-Mat.8",
		"mesh":13
	},
	{
		"name":"head-Mat.7",
		"mesh":14
	}],
	"meshes":[{
		"name":"head-Mat.5",
		"primitives":[{
			"attributes":{
				"POSITION":1,
				"NORMAL":2,
				"TEXCOORD_0":3
			},
			"indices":0,
			"material":0
		}]
	},
	{
		"name":"head-Mat.4",
		"primitives":[{
			"attributes":{
				"POSITION":5,
				"NORMAL":6,
				"TEXCOORD_0":7
			},
			"indices":4,
			"material":1
		}]
	},
	{
		"name":"head-Mat.3",
		"primitives":[{
			"attributes":{
				"POSITION":9,
				"NORMAL":10,
				"TEXCOORD_0":11
			},
			"indices":8,
			"material":2
		}]
	},
	{
		"name":"head-Mat.3",
		"primitives":[{
			"attributes":{
				"POSITION":13,
				"NORMAL":14,
				"TEXCOORD_0":15
			},
			"indices":12,
			"material":3
		}]
	},
	{
		"name":"head-Mat.2",
		"primitives":[{
			"attributes":{
				"POSITION":17,
				"NORMAL":18,
				"TEXCOORD_0":19
			},
			"indices":16,
			"material":4
		}]
	},
	{
		"name":"head-Mat.12",
		"primitives":[{
			"attributes":{
				"POSITION":21,
				"NORMAL":22,
				"TEXCOORD_0":23
			},
			"indices":20,
			"material":5
		}]
	},
	{
		"name":"head-Mat.6",
		"primitives":[{
			"attributes":{
				"POSITION":25,
				"NORMAL":26,
				"TEXCOORD_0":27
			},
			"indices":24,
			"material":6
		}]
	},
	{
		"name":"head-Mat.9",
		"primitives":[{
			"attributes":{
				"POSITION":29,
				"NORMAL":30,
				"TEXCOORD_0":31
			},
			"indices":28,
			"material":7
		}]
	},
	{
		"name":"head-Mat.10",
		"primitives":[{
			"attributes":{
				"POSITION":33,
				"NORMAL":34,
				"TEXCOORD_0":35
			},
			"indices":32,
			"material":8
		}]
	},
	{
		"name":"head-Mat.11",
		"primitives":[{
			"attributes":{
				"POSITION":37,
				"NORMAL":38,
				"TEXCOORD_0":39
			},
			"indices":36,
			"material":9
		}]
	},
	{
		"name":"head-Mat.13",
		"primitives":[{
			"attributes":{
				"POSITION":41,
				"NORMAL":42,
				"TEXCOORD_0":43
			},
			"indices":40,
			"material":10
		}]
	},
	{
		"name":"head-Mat.3",
		"primitives":[{
			"attributes":{
				"POSITION":45,
				"NORMAL":46,
				"TEXCOORD_0":47
			},
			"indices":44,
			"material":2
		}]
	},
	{
		"name":"head-Mat.2",
		"primitives":[{
			"attributes":{
				"POSITION":49,
				"NORMAL":50,
				"TEXCOORD_0":51
			},
			"indices":48,
			"material":4
		}]
	},
	{
		"name":"head-Mat.8",
		"primitives":[{
			"attributes":{
				"POSITION":53,
				"NORMAL":54,
				"TEXCOORD_0":55
			},
			"indices":52,
			"material":11
		}]
	},
	{
		"name":"head-Mat.7",
		"primitives":[{
			"attributes":{
				"POSITION":57,
				"NORMAL":58,
				"TEXCOORD_0":59
			},
			"indices":56,
			"material":12
		}]
	}],
	"accessors":[{
		"bufferView":0,
		"type":"SCALAR",
		"componentType":5123,
		"count":60,
		"byteOffset":0,
		"min":[0],
		"max":[59]
	},
	{
		"bufferView":1,
		"type":"VEC3",
		"componentType":5126,
		"count":60,
		"byteOffset":0,
		"min":[-0.37032827734947207,
		-0.9164177179336548,
		-0.2281510829925537],
		"max":[0.37719178199768069,
		-0.23787043988704682,
		-0.2281510829925537]
	},
	{
		"bufferView":1,
		"type":"VEC3",
		"componentType":5126,
		"count":60,
		"byteOffset":12,
		"min":[0.0,
		0.0,
		-1.0],
		"max":[0.0,
		0.0,
		-1.0]
	},
	{
		"bufferView":1,
		"type":"VEC2",
		"componentType":5126,
		"count":60,
		"byteOffset":24,
		"min":[0.24965837597846986,
		0.40384775400161745],
		"max":[0.7431882619857788,
		0.8696804046630859]
	},
	{
		"bufferView":2,
		"type":"SCALAR",
		"componentType":5123,
		"count":66,
		"byteOffset":0,
		"min":[0],
		"max":[65]
	},
	{
		"bufferView":3,
		"type":"VEC3",
		"componentType":5126,
		"count":66,
		"byteOffset":0,
		"min":[-0.6084932088851929,
		0.014817658811807633,
		-0.2203245908021927],
		"max":[-0.23653432726860047,
		0.26701489090919497,
		-0.2203245908021927]
	},
	{
		"bufferView":3,
		"type":"VEC3",
		"componentType":5126,
		"count":66,
		"byteOffset":12,
		"min":[0.0,
		0.0,
		-1.0],
		"max":[0.0,
		0.0,
		-1.0]
	},
	{
		"bufferView":3,
		"type":"VEC2",
		"componentType":5126,
		"count":66,
		"byteOffset":24,
		"min":[0.6444206237792969,
		0.07142812013626099],
		"max":[0.8768807649612427,
		0.240046888589859]
	},
	{
		"bufferView":4,
		"type":"SCALAR",
		"componentType":5123,
		"count":144,
		"byteOffset":0,
		"min":[0],
		"max":[143]
	},
	{
		"bufferView":5,
		"type":"VEC3",
		"componentType":5126,
		"count":144,
		"byteOffset":0,
		"min":[-0.725962221622467,
		0.29476022720336916,
		-0.24382460117340089],
		"max":[0.7385111451148987,
		0.3315074145793915,
		-0.24382460117340089]
	},
	{
		"bufferView":5,
		"type":"VEC3",
		"componentType":5126,
		"count":144,
		"byteOffset":12,
		"min":[0.0,
		0.0,
		-1.0],
		"max":[0.0,
		0.0,
		-1.0]
	},
	{
		"bufferView":5,
		"type":"VEC2",
		"componentType":5126,
		"count":144,
		"byteOffset":24,
		"min":[0.03956260532140732,
		0.028503108769655229],
		"max":[0.9509652853012085,
		0.051691994071006778]
	},
	{
		"bufferView":6,
		"type":"SCALAR",
		"componentType":5123,
		"count":1056,
		"byteOffset":0,
		"min":[0],
		"max":[1055]
	},
	{
		"bufferView":7,
		"type":"VEC3",
		"componentType":5126,
		"count":1056,
		"byteOffset":0,
		"min":[-0.7428520917892456,
		0.2778702974319458,
		-0.24532459676265717],
		"max":[0.7544478178024292,
		0.347444087266922,
		-0.23282459378242494]
	},
	{
		"bufferView":7,
		"type":"VEC3",
		"componentType":5126,
		"count":1056,
		"byteOffset":12,
		"min":[-0.9999954700469971,
		-0.9999954700469971,
		-1.0],
		"max":[0.9999954700469971,
		0.9999954700469971,
		0.0]
	},
	{
		"bufferView":7,
		"type":"VEC2",
		"componentType":5126,
		"count":1056,
		"byteOffset":24,
		"min":[0.032024770975112918,
		0.02067292109131813],
		"max":[0.9595557451248169,
		0.05926086753606796]
	},
	{
		"bufferView":8,
		"type":"SCALAR",
		"componentType":5123,
		"count":198,
		"byteOffset":0,
		"min":[0],
		"max":[197]
	},
	{
		"bufferView":9,
		"type":"VEC3",
		"componentType":5126,
		"count":198,
		"byteOffset":0,
		"min":[-0.7293556332588196,
		-1.6350120306015015,
		-0.08853459358215332],
		"max":[0.7253842949867249,
		-1.0422046184539796,
		1.0246577262878419]
	},
	{
		"bufferView":9,
		"type":"VEC3",
		"componentType":5126,
		"count":198,
		"byteOffset":12,
		"min":[-1.0,
		0.0,
		0.0],
		"max":[1.0,
		0.0,
		0.0]
	},
	{
		"bufferView":9,
		"type":"VEC2",
		"componentType":5126,
		"count":198,
		"byteOffset":24,
		"min":[0.03393000364303589,
		0.03393959999084473],
		"max":[0.5303139686584473,
		0.9660648107528687]
	},
	{
		"bufferView":10,
		"type":"SCALAR",
		"componentType":5123,
		"count":3558,
		"byteOffset":0,
		"min":[0],
		"max":[3557]
	},
	{
		"bufferView":11,
		"type":"VEC3",
		"componentType":5126,
		"count":3558,
		"byteOffset":0,
		"min":[-0.7489238977432251,
		-1.6755330562591553,
		-0.12906159460544587],
		"max":[0.7449524998664856,
		-1.0016876459121705,
		1.065190076828003]
	},
	{
		"bufferView":11,
		"type":"VEC3",
		"componentType":5126,
		"count":3558,
		"byteOffset":12,
		"min":[-1.0,
		-0.9999904632568359,
		-0.9999948740005493],
		"max":[1.0,
		1.0,
		0.9999948740005493]
	},
	{
		"bufferView":11,
		"type":"VEC2",
		"componentType":5126,
		"count":3558,
		"byteOffset":24,
		"min":[0.0,
		0.0],
		"max":[1.0,
		1.0]
	},
	{
		"bufferView":12,
		"type":"SCALAR",
		"componentType":5123,
		"count":768,
		"byteOffset":0,
		"min":[0],
		"max":[767]
	},
	{
		"bufferView":13,
		"type":"VEC3",
		"componentType":5126,
		"count":768,
		"byteOffset":0,
		"min":[-0.7414883971214294,
		-1.574756145477295,
		-0.01051647774875164],
		"max":[0.7478806376457214,
		-1.152787685394287,
		0.9143583178520203]
	},
	{
		"bufferView":13,
		"type":"VEC3",
		"componentType":5126,
		"count":768,
		"byteOffset":12,
		"min":[-1.0,
		-0.9978092312812805,
		-0.9978092312812805],
		"max":[1.0,
		0.9978092312812805,
		0.9978092312812805]
	},
	{
		"bufferView":13,
		"type":"VEC2",
		"componentType":5126,
		"count":768,
		"byteOffset":24,
		"min":[0.0,
		0.0],
		"max":[1.0,
		1.0]
	},
	{
		"bufferView":14,
		"type":"SCALAR",
		"componentType":5123,
		"count":288,
		"byteOffset":0,
		"min":[0],
		"max":[287]
	},
	{
		"bufferView":15,
		"type":"VEC3",
		"componentType":5126,
		"count":288,
		"byteOffset":0,
		"min":[-2.531522035598755,
		0.07953906059265137,
		-0.026620199903845788],
		"max":[2.52755069732666,
		0.3294902741909027,
		0.24437980353832246]
	},
	{
		"bufferView":15,
		"type":"VEC3",
		"componentType":5126,
		"count":288,
		"byteOffset":12,
		"min":[-0.9999184012413025,
		-1.0,
		-1.0],
		"max":[0.9999184012413025,
		1.0,
		1.0]
	},
	{
		"bufferView":15,
		"type":"VEC2",
		"componentType":5126,
		"count":288,
		"byteOffset":24,
		"min":[-0.05948974937200546,
		-0.25827980041503909],
		"max":[1.0,
		1.1747920513153077]
	},
	{
		"bufferView":16,
		"type":"SCALAR",
		"componentType":5123,
		"count":384,
		"byteOffset":0,
		"min":[0],
		"max":[383]
	},
	{
		"bufferView":17,
		"type":"VEC3",
		"componentType":5126,
		"count":384,
		"byteOffset":0,
		"min":[-2.1854405403137209,
		0.1732155680656433,
		-0.06334586441516876],
		"max":[2.181469202041626,
		0.228412464261055,
		0.27744466066360476]
	},
	{
		"bufferView":17,
		"type":"VEC3",
		"componentType":5126,
		"count":384,
		"byteOffset":12,
		"min":[0.0,
		0.0,
		-1.0],
		"max":[0.0,
		0.0,
		1.0]
	},
	{
		"bufferView":17,
		"type":"VEC2",
		"componentType":5126,
		"count":384,
		"byteOffset":24,
		"min":[0.336628258228302,
		0.3683490753173828],
		"max":[0.6633718609809876,
		0.6316509246826172]
	},
	{
		"bufferView":18,
		"type":"SCALAR",
		"componentType":5123,
		"count":1104,
		"byteOffset":0,
		"min":[0],
		"max":[1103]
	},
	{
		"bufferView":19,
		"type":"VEC3",
		"componentType":5126,
		"count":1104,
		"byteOffset":0,
		"min":[-2.0429975986480715,
		0.1627597063779831,
		0.07506033033132553],
		"max":[2.0390262603759767,
		0.23910123109817506,
		0.15140186250209809]
	},
	{
		"bufferView":19,
		"type":"VEC3",
		"componentType":5126,
		"count":1104,
		"byteOffset":12,
		"min":[-1.0,
		-1.0,
		-1.0],
		"max":[1.0,
		1.0,
		1.0]
	},
	{
		"bufferView":19,
		"type":"VEC2",
		"componentType":5126,
		"count":1104,
		"byteOffset":24,
		"min":[0.0,
		0.0],
		"max":[1.0,
		1.0]
	},
	{
		"bufferView":20,
		"type":"SCALAR",
		"componentType":5123,
		"count":960,
		"byteOffset":0,
		"min":[0],
		"max":[959]
	},
	{
		"bufferView":21,
		"type":"VEC3",
		"componentType":5126,
		"count":960,
		"byteOffset":0,
		"min":[-0.12204791605472565,
		0.4157627522945404,
		0.027323951944708825],
		"max":[0.11807654798030853,
		0.5547680258750916,
		0.1663292497396469]
	},
	{
		"bufferView":21,
		"type":"VEC3",
		"componentType":5126,
		"count":960,
		"byteOffset":12,
		"min":[-1.0,
		-0.9978092312812805,
		-0.9978092312812805],
		"max":[1.0,
		0.9978092312812805,
		0.9978092312812805]
	},
	{
		"bufferView":21,
		"type":"VEC2",
		"componentType":5126,
		"count":960,
		"byteOffset":24,
		"min":[-0.13194234669208527,
		-0.13194233179092408],
		"max":[1.0737950801849366,
		1.1319422721862794]
	},
	{
		"bufferView":22,
		"type":"SCALAR",
		"componentType":5123,
		"count":1068,
		"byteOffset":0,
		"min":[0],
		"max":[1067]
	},
	{
		"bufferView":23,
		"type":"VEC3",
		"componentType":5126,
		"count":1068,
		"byteOffset":0,
		"min":[-0.3163151443004608,
		0.3682600259780884,
		-0.06537569314241409],
		"max":[0.3123438060283661,
		0.6727245450019836,
		0.3944071829319]
	},
	{
		"bufferView":23,
		"type":"VEC3",
		"componentType":5126,
		"count":1068,
		"byteOffset":12,
		"min":[-1.0,
		-1.0,
		-1.0],
		"max":[1.0,
		1.0,
		1.0]
	},
	{
		"bufferView":23,
		"type":"VEC2",
		"componentType":5126,
		"count":1068,
		"byteOffset":24,
		"min":[-0.0341997854411602,
		-0.24933966994285584],
		"max":[1.034199833869934,
		1.2493395805358887]
	},
	{
		"bufferView":24,
		"type":"SCALAR",
		"componentType":5123,
		"count":9855,
		"byteOffset":0,
		"min":[0],
		"max":[9854]
	},
	{
		"bufferView":25,
		"type":"VEC3",
		"componentType":5126,
		"count":9855,
		"byteOffset":0,
		"min":[-2.2866501808166506,
		-1.1218181848526,
		-0.2920706868171692],
		"max":[2.2826786041259767,
		1.0871244668960572,
		1.1883918046951295]
	},
	{
		"bufferView":25,
		"type":"VEC3",
		"componentType":5126,
		"count":9855,
		"byteOffset":12,
		"min":[-1.0,
		-1.0,
		-1.0],
		"max":[1.0,
		1.0,
		1.0]
	},
	{
		"bufferView":25,
		"type":"VEC2",
		"componentType":5126,
		"count":9855,
		"byteOffset":24,
		"min":[-0.055203840136528018,
		-0.13388881087303163],
		"max":[1.055203914642334,
		1.1338887214660645]
	},
	{
		"bufferView":26,
		"type":"SCALAR",
		"componentType":5123,
		"count":96,
		"byteOffset":0,
		"min":[0],
		"max":[95]
	},
	{
		"bufferView":27,
		"type":"VEC3",
		"componentType":5126,
		"count":96,
		"byteOffset":0,
		"min":[-0.26068204641342165,
		0.7736372351646423,
		-0.29357901215553286],
		"max":[0.26862475275993349,
		0.9742574095726013,
		-0.29357901215553286]
	},
	{
		"bufferView":27,
		"type":"VEC3",
		"componentType":5126,
		"count":96,
		"byteOffset":12,
		"min":[0.0,
		0.0,
		-1.0],
		"max":[0.0,
		0.0,
		-1.0]
	},
	{
		"bufferView":27,
		"type":"VEC2",
		"componentType":5126,
		"count":96,
		"byteOffset":24,
		"min":[0.06595627963542938,
		0.06595627963542938],
		"max":[0.9340437054634094,
		0.9340436458587647]
	},
	{
		"bufferView":28,
		"type":"SCALAR",
		"componentType":5123,
		"count":672,
		"byteOffset":0,
		"min":[0],
		"max":[671]
	},
	{
		"bufferView":29,
		"type":"VEC3",
		"componentType":5126,
		"count":672,
		"byteOffset":0,
		"min":[-0.2759249210357666,
		0.7583943605422974,
		-0.30552899837493899],
		"max":[0.28386765718460085,
		0.9895002841949463,
		-0.2669025957584381]
	},
	{
		"bufferView":29,
		"type":"VEC3",
		"componentType":5126,
		"count":672,
		"byteOffset":12,
		"min":[-0.9978092312812805,
		-0.9978092312812805,
		-1.0],
		"max":[0.9978092312812805,
		0.9978092312812805,
		1.0]
	},
	{
		"bufferView":29,
		"type":"VEC2",
		"componentType":5126,
		"count":672,
		"byteOffset":24,
		"min":[0.0,
		0.0],
		"max":[1.0,
		1.0]
	}],
	"bufferViews":[{
		"target":34963,
		"buffer":0,
		"byteOffset":0,
		"byteLength":120
	},
	{
		"target":34962,
		"buffer":0,
		"byteOffset":120,
		"byteLength":1920,
		"byteStride":32
	},
	{
		"target":34963,
		"buffer":1,
		"byteOffset":0,
		"byteLength":132
	},
	{
		"target":34962,
		"buffer":1,
		"byteOffset":132,
		"byteLength":2112,
		"byteStride":32
	},
	{
		"target":34963,
		"buffer":2,
		"byteOffset":0,
		"byteLength":288
	},
	{
		"target":34962,
		"buffer":2,
		"byteOffset":288,
		"byteLength":4608,
		"byteStride":32
	},
	{
		"target":34963,
		"buffer":3,
		"byteOffset":0,
		"byteLength":2112
	},
	{
		"target":34962,
		"buffer":3,
		"byteOffset":2112,
		"byteLength":33792,
		"byteStride":32
	},
	{
		"target":34963,
		"buffer":4,
		"byteOffset":0,
		"byteLength":396
	},
	{
		"target":34962,
		"buffer":4,
		"byteOffset":396,
		"byteLength":6336,
		"byteStride":32
	},
	{
		"target":34963,
		"buffer":5,
		"byteOffset":0,
		"byteLength":7116
	},
	{
		"target":34962,
		"buffer":5,
		"byteOffset":7116,
		"byteLength":113856,
		"byteStride":32
	},
	{
		"target":34963,
		"buffer":6,
		"byteOffset":0,
		"byteLength":1536
	},
	{
		"target":34962,
		"buffer":6,
		"byteOffset":1536,
		"byteLength":24576,
		"byteStride":32
	},
	{
		"target":34963,
		"buffer":7,
		"byteOffset":0,
		"byteLength":576
	},
	{
		"target":34962,
		"buffer":7,
		"byteOffset":576,
		"byteLength":9216,
		"byteStride":32
	},
	{
		"target":34963,
		"buffer":8,
		"byteOffset":0,
		"byteLength":768
	},
	{
		"target":34962,
		"buffer":8,
		"byteOffset":768,
		"byteLength":12288,
		"byteStride":32
	},
	{
		"target":34963,
		"buffer":9,
		"byteOffset":0,
		"byteLength":2208
	},
	{
		"target":34962,
		"buffer":9,
		"byteOffset":2208,
		"byteLength":35328,
		"byteStride":32
	},
	{
		"target":34963,
		"buffer":10,
		"byteOffset":0,
		"byteLength":1920
	},
	{
		"target":34962,
		"buffer":10,
		"byteOffset":1920,
		"byteLength":30720,
		"byteStride":32
	},
	{
		"target":34963,
		"buffer":11,
		"byteOffset":0,
		"byteLength":2136
	},
	{
		"target":34962,
		"buffer":11,
		"byteOffset":2136,
		"byteLength":34176,
		"byteStride":32
	},
	{
		"target":34963,
		"buffer":12,
		"byteOffset":0,
		"byteLength":19710
	},
	{
		"target":34962,
		"buffer":12,
		"byteOffset":19712,
		"byteLength":315360,
		"byteStride":32
	},
	{
		"target":34963,
		"buffer":13,
		"byteOffset":0,
		"byteLength":192
	},
	{
		"target":34962,
		"buffer":13,
		"byteOffset":192,
		"byteLength":3072,
		"byteStride":32
	},
	{
		"target":34963,
		"buffer":14,
		"byteOffset":0,
		"byteLength":1344
	},
	{
		"target":34962,
		"buffer":14,
		"byteOffset":1344,
		"byteLength":21504,
		"byteStride":32
	}],
	"buffers":[{
		"uri":"data:application/octet-stream;base64,",
		"byteLength":2040
	},
	{
		"uri":"data:application/octet-stream;base64,",
		"byteLength":2244
	},
	{
		"uri":"data:application/octet-stream;base64,",
		"byteLength":4896
	},
	{
		"uri":"data:application/octet-stream;base64,",
		"byteLength":35904
	},
	{
		"uri":"data:application/octet-stream;base64,",
		"byteLength":6732
	},
	{
		"uri":"data:application/octet-stream;base64,",
		"byteLength":120972
	},
	{
		"uri":"data:application/octet-stream;base64,",
		"byteLength":26112
	},
	{
		"uri":"data:application/octet-stream;base64,",
		"byteLength":9792
	},
	{
		"uri":"data:application/octet-stream;base64,",
		"byteLength":13056
	},
	{
		"uri":"data:application/octet-stream;base64,",
		"byteLength":37536
	},
	{
		"uri":"data:application/octet-stream;base64,",
		"byteLength":32640
	},
	{
		"uri":"data:application/octet-stream;base64,",
		"byteLength":36312
	},
	{
		"uri":"data:application/octet-stream;base64,",
		"byteLength":335072
	},
	{
		"uri":"data:application/octet-stream;base64,",
		"byteLength":3264
	},
	{
		"uri":"data:application/octet-stream;base64,",
		"byteLength":22848
	}],
	"materials":[{
		"pbrMetallicRoughness":{
			"baseColorFactor":[0.36,
			0.36,
			0.36,
			1.0],
			"metallicFactor":0.0,
			"roughnessFactor":0.5
		},
		"emissiveFactor":[0.0,
		0.0,
		0.0],
		"alphaMode":"OPAQUE",
		"doubleSided":false,
		"name":"Mat.5"
	},
	{
		"pbrMetallicRoughness":{
			"baseColorFactor":[0.0,
			0.0,
			0.0,
			1.0],
			"metallicFactor":0.0,
			"roughnessFactor":0.5
		},
		"emissiveFactor":[0.0,
		0.0,
		0.0],
		"alphaMode":"OPAQUE",
		"doubleSided":false,
		"name":"Mat.4"
	},
	{
		"pbrMetallicRoughness":{
			"baseColorFactor":[0.2666666666666666,
			1.0,
			0.0,
			1.0],
			"metallicFactor":0.25,
			"roughnessFactor":0.5700000000000001
		},
		"emissiveFactor":[0.0,
		0.0,
		0.0],
		"alphaMode":"OPAQUE",
		"doubleSided":false,
		"name":"Mat.3"
	},
	{
		"pbrMetallicRoughness":{
			"baseColorFactor":[0.2613333333333335,
			0.98,
			0.0,
			1.0],
			"metallicFactor":0.25,
			"roughnessFactor":0.31
		},
		"emissiveFactor":[0.0,
		0.0,
		0.0],
		"alphaMode":"OPAQUE",
		"doubleSided":false,
		"name":"Mat.3"
	},
	{
		"pbrMetallicRoughness":{
			"baseColorFactor":[0.06399999999999978,
			0.64,
			0.0,
			1.0],
			"metallicFactor":0.0,
			"roughnessFactor":0.5
		},
		"emissiveFactor":[0.0,
		0.0,
		0.0],
		"alphaMode":"OPAQUE",
		"doubleSided":false,
		"name":"Mat.2"
	},
	{
		"pbrMetallicRoughness":{
			"baseColorFactor":[0.13,
			0.13,
			0.13,
			1.0],
			"metallicFactor":1.0,
			"roughnessFactor":1.0
		},
		"emissiveFactor":[0.0,
		0.0,
		0.0],
		"alphaMode":"OPAQUE",
		"doubleSided":false,
		"name":"Mat.12"
	},
	{
		"pbrMetallicRoughness":{
			"baseColorFactor":[0.11,
			0.11,
			0.11,
			1.0],
			"metallicFactor":0.0,
			"roughnessFactor":0.5
		},
		"emissiveFactor":[0.0,
		0.0,
		0.0],
		"alphaMode":"OPAQUE",
		"doubleSided":false,
		"name":"Mat.6"
	},
	{
		"pbrMetallicRoughness":{
			"baseColorFactor":[0.19,
			0.19,
			0.19,
			1.0],
			"metallicFactor":0.0,
			"roughnessFactor":0.5
		},
		"emissiveFactor":[0.0,
		0.0,
		0.0],
		"alphaMode":"OPAQUE",
		"doubleSided":false,
		"name":"Mat.9"
	},
	{
		"pbrMetallicRoughness":{
			"baseColorFactor":[0.1733333333333333,
			0.65,
			0.0,
			1.0],
			"metallicFactor":0.0,
			"roughnessFactor":0.5
		},
		"emissiveFactor":[0.0,
		0.0,
		0.0],
		"alphaMode":"OPAQUE",
		"doubleSided":false,
		"name":"Mat.10"
	},
	{
		"pbrMetallicRoughness":{
			"baseColorFactor":[0.08099999999999996,
			0.54,
			0.0,
			1.0],
			"metallicFactor":0.0,
			"roughnessFactor":0.5
		},
		"emissiveFactor":[0.0,
		0.0,
		0.0],
		"alphaMode":"OPAQUE",
		"doubleSided":false,
		"name":"Mat.11"
	},
	{
		"pbrMetallicRoughness":{
			"baseColorFactor":[0.07799999999999996,
			0.52,
			0.0,
			1.0],
			"metallicFactor":0.0,
			"roughnessFactor":0.5
		},
		"emissiveFactor":[0.0,
		0.0,
		0.0],
		"alphaMode":"OPAQUE",
		"doubleSided":false,
		"name":"Mat.13"
	},
	{
		"pbrMetallicRoughness":{
			"baseColorFactor":[0.8,
			0.27999999999999999,
			0.0,
			1.0],
			"metallicFactor":0.0,
			"roughnessFactor":0.5
		},
		"emissiveFactor":[0.0,
		0.0,
		0.0],
		"alphaMode":"OPAQUE",
		"doubleSided":false,
		"name":"Mat.8"
	},
	{
		"pbrMetallicRoughness":{
			"baseColorFactor":[0.18,
			0.18,
			0.18,
			1.0],
			"metallicFactor":0.0,
			"roughnessFactor":0.5
		},
		"emissiveFactor":[0.0,
		0.0,
		0.0],
		"alphaMode":"OPAQUE",
		"doubleSided":false,
		"name":"Mat.7"
	}]
}